<?xml version="1.0" encoding="utf-8"?>
<!-- Generator: Adobe Illustrator 17.0.1, SVG Export Plug-In . SVG Version: 6.00 Build 0)  -->
<!DOCTYPE svg PUBLIC "-//W3C//DTD SVG 1.1//EN" "http://www.w3.org/Graphics/SVG/1.1/DTD/svg11.dtd">
<svg version="1.1" id="Слой_1" xmlns="http://www.w3.org/2000/svg" xmlns:xlink="http://www.w3.org/1999/xlink" x="0px" y="0px"
	 width="102.2864761px" height="44.49506px" viewBox="0 0 102.2864761 44.49506" enable-background="new 0 0 102.2864761 44.49506"
	 xml:space="preserve">
<linearGradient id="SVGID_1_" gradientUnits="userSpaceOnUse" x1="0" y1="22" x2="40" y2="22">
	<stop  offset="0" style="stop-color:#E48735"/>
	<stop  offset="0.33" style="stop-color:#1EA69A"/>
	<stop  offset="0.66" style="stop-color:#78B0EF"/>
	<stop  offset="1" style="stop-color:#7F64B5"/>
</linearGradient>
<circle fill="url(#SVGID_1_)" cx="20" cy="22" r="20"/>
<g>
	<path fill="#FFFFFF" d="M25.2908726,21.3339272c1.9560547,0.46875,3.1884766,1.6347656,2.9477539,4.2470703
		c-0.3085938,3.2558594-2.7197266,4.1269531-6.1762695,4.3144531v3.4160156h-2.0634766v-3.3623047
		c-0.5224609,0-1.0717773,0-1.6342773-0.0136719v3.3759766h-2.0629883v-3.4160156
		c-0.4824228,0-0.9648447-0.0136719-1.4604502-0.0136719h-2.6796875l0.4155273-2.4521484
		c1.5141602,0.0273438,1.4873047,0,1.4873047,0c0.5756836,0,0.7368164-0.4150391,0.7768555-0.6826172v-5.3857422
		c0.0668945,0,0.1474609,0,0.2143555,0c-0.0805664-0.0136719-0.1606445-0.0136719-0.2143555-0.0136719v-3.8447266
		c-0.0805664-0.4287109-0.3481445-0.9111328-1.1923828-0.9111328c0,0,0.0268555-0.0268555-1.4873047,0V14.394474l2.840332,0.0136719
		c0.4155273,0,0.8574219,0,1.2998056-0.0136719v-3.3759766h2.0629883v3.309082
		c0.5493164-0.0131836,1.0986328-0.0268555,1.6342773-0.0268555v-3.2822266h2.0634766v3.3759766
		c2.6523438,0.2280273,4.7558594,1.0449219,4.9838867,3.4833984C27.2200718,19.6591225,26.4700718,20.7313881,25.2908726,21.3339272
		z M18.4046421,16.7392006v4.1123047c1.1655273,0,4.8095703,0.2685547,4.8095703-2.0493164
		C23.2142124,16.3773842,19.5701694,16.7392006,18.4046421,16.7392006z M18.4046421,22.9149818v4.5283203
		c1.3935547,0,5.7607422,0.2949219,5.7607422-2.2646484C24.1653843,22.52631,19.7981968,22.9149818,18.4046421,22.9149818z"/>
</g>
<g>
	<path fill="#444444" d="M53.8582535,8.6117592c-0.7260742-0.2338867-1.347168-0.3510742-1.8632813-0.3510742
		c-0.4921875,0-0.8818359,0.090332-1.1699219,0.2700195c-0.2880859,0.1801758-0.4316406,0.4443359-0.4316406,0.7919922
		c0,0.4443359,0.2070313,0.7832031,0.6206055,1.0170898c0.4140625,0.2338867,1.0532227,0.4770508,1.9169922,0.7290039
		c0.8642578,0.2519531,1.5751953,0.5039063,2.1333008,0.7563477c0.5581055,0.2519531,1.034668,0.6298828,1.4301758,1.1337891
		c0.3964844,0.5039063,0.5947266,1.1699219,0.5947266,1.9980469c0,0.8041992-0.2138672,1.4970703-0.6396484,2.0791016
		s-1.0102539,1.0229492-1.7543945,1.3227539s-1.590332,0.4501953-2.5380859,0.4501953
		c-1.0200195,0-2.0219727-0.1801758-3.0058594-0.5400391s-1.8359375-0.8520508-2.5561523-1.4760742l1.1342773-2.3217773
		c0.6357422,0.5756836,1.3676758,1.0380859,2.1958008,1.3857422c0.828125,0.3481445,1.5839844,0.5219727,2.2680664,0.5219727
		c0.5878906,0,1.046875-0.1079102,1.3769531-0.3237305c0.3300781-0.2163086,0.4951172-0.5283203,0.4951172-0.9360352
		c0-0.3242188-0.1113281-0.5913086-0.3330078-0.8012695c-0.222168-0.2094727-0.5039063-0.3808594-0.8461914-0.5126953
		c-0.3417969-0.1323242-0.8129883-0.2822266-1.4130859-0.4501953c-0.8637695-0.2397461-1.5688477-0.4799805-2.1147461-0.7202148
		c-0.5463867-0.2397461-1.0170898-0.6054688-1.4130859-1.0976563s-0.59375-1.1459961-0.59375-1.9619141
		c0-0.7563477,0.2036133-1.4189453,0.6118164-1.9892578c0.4077148-0.5698242,0.9780273-1.0078125,1.7099609-1.3139648
		s1.5839844-0.4589844,2.5561523-0.4589844c0.8637695,0,1.7158203,0.1259766,2.5556641,0.3779297
		c0.840332,0.2519531,1.5844727,0.5883789,2.2329102,1.0078125l-1.0986328,2.3583984
		C55.2713394,9.1610756,54.5843277,8.8461342,53.8582535,8.6117592z"/>
	<path fill="#444444" d="M74.3968277,9.8539467c0.6298828,0.6660156,0.9443359,1.5688477,0.9443359,2.7089844v6.0839844h-2.7539063
		v-5.2739258c0-0.6240234-0.1679688-1.1098633-0.5039063-1.4580078s-0.7919922-0.5219727-1.3681641-0.5219727
		c-0.6601563,0.012207-1.1816406,0.2460938-1.5654297,0.7021484c-0.3847656,0.4560547-0.5761719,1.0439453-0.5761719,1.7636719
		v4.7880859h-2.7539063v-5.2739258c0-0.6123047-0.1650391-1.0952148-0.4951172-1.4492188
		c-0.3300781-0.3535156-0.7832031-0.5307617-1.359375-0.5307617c-0.6601563,0.012207-1.1845703,0.2460938-1.5742188,0.7021484
		c-0.390625,0.4560547-0.5859375,1.0439453-0.5859375,1.7636719v4.7880859h-2.7714844v-9.684082h2.7714844v1.6743164
		c0.6728516-1.1640625,1.7646484-1.7578125,3.2763672-1.7822266c0.8164063,0,1.5058594,0.1953125,2.0703125,0.5849609
		c0.5634766,0.3901367,0.9658203,0.9389648,1.2060547,1.6469727c0.3115234-0.7319336,0.7646484-1.2836914,1.3583984-1.6557617
		c0.5947266-0.3720703,1.3056641-0.5639648,2.1337891-0.5761719C72.9173355,8.8549232,73.7669449,9.1879311,74.3968277,9.8539467z"
		/>
	<path fill="#444444" d="M83.3509293,18.6469154v-1.1337891c-0.3242188,0.4077148-0.7441406,0.7197266-1.2597656,0.9355469
		c-0.5166016,0.2163086-1.1103516,0.3242188-1.7822266,0.3242188c-1.0205078,0-1.8300781-0.2788086-2.4306641-0.8369141
		c-0.5996094-0.5581055-0.8994141-1.2871094-0.8994141-2.1870117c0-0.9116211,0.3203125-1.6230469,0.9628906-2.1328125
		c0.6416016-0.5102539,1.5507813-0.7709961,2.7265625-0.7832031h2.6640625v-0.1801758
		c0-0.515625-0.1708984-0.9145508-0.5126953-1.1967773c-0.3417969-0.2817383-0.8427734-0.4228516-1.5029297-0.4228516
		c-0.9003906,0-1.8603516,0.2817383-2.8798828,0.8457031l-0.8642578-1.9077148
		c0.7675781-0.3842773,1.4882813-0.6660156,2.1601563-0.8461914s1.4101563-0.2700195,2.2138672-0.2700195
		c1.2958984,0,2.3007813,0.3061523,3.0146484,0.9179688s1.0771484,1.4643555,1.0898438,2.5561523l0.0175781,6.3178711H83.3509293z
		 M82.5765152,16.378849c0.4199219-0.2758789,0.671875-0.6235352,0.7558594-1.0439453v-0.8637695h-2.1777344
		c-0.5400391,0-0.9394531,0.0869141-1.1972656,0.2607422c-0.2578125,0.1743164-0.3867188,0.453125-0.3867188,0.8369141
		c0,0.3720703,0.1347656,0.6694336,0.4052734,0.8911133c0.2695313,0.222168,0.6386719,0.3330078,1.1064453,0.3330078
		C81.6585464,16.7929115,82.1565933,16.6552162,82.5765152,16.378849z"/>
	<path fill="#444444" d="M92.5491714,9.3407631c0.5400391-0.3115234,1.1699219-0.4736328,1.8896484-0.4858398v2.6098633
		c-0.0957031-0.0117188-0.2402344-0.0180664-0.4316406-0.0180664c-0.8525391,0-1.5273438,0.2314453-2.0253906,0.6933594
		s-0.7470703,1.0771484-0.7470703,1.8447266v4.6621094h-2.7714844v-9.684082h2.7714844v1.7460938
		C91.5706558,10.1088295,92.0091324,9.6532631,92.5491714,9.3407631z"/>
	<path fill="#444444" d="M101.9446793,18.1068764c-0.3603516,0.2158203-0.7587891,0.3813477-1.1972656,0.4951172
		s-0.8789063,0.1708984-1.3232422,0.1708984c-0.8994141,0-1.6318359-0.2578125-2.1953125-0.7739258
		c-0.5644531-0.515625-0.8466797-1.2539063-0.8466797-2.2138672v-4.4824219h-1.3496094V9.3949623h1.3496094V6.7308998h2.7539063
		v2.6640625h2.6289063v1.9257813h-2.6289063v3.9960938c0,0.7441406,0.2939453,1.1162109,0.8828125,1.1162109
		c0.4072266,0,0.8574219-0.1201172,1.3496094-0.3603516L101.9446793,18.1068764z"/>
	<path fill="#444444" d="M47.6214371,26.0477943h3.1679688l3.9238281,7.7392578l3.8886719-7.7392578h3.1484375v12.5996094
		h-2.5546875v-8.5136719l-3.5820313,7.2353516h-1.8364258l-3.6000977-7.2353516v8.5136719h-2.5556641V26.0477943z"/>
	<path fill="#444444" d="M66.9437027,25.0936928c0.2822266,0.2880859,0.4228516,0.6601563,0.4228516,1.1152344
		c0,0.4570313-0.140625,0.828125-0.4228516,1.1162109s-0.6455078,0.4326172-1.0888672,0.4326172
		c-0.4326172,0-0.7890625-0.1474609-1.0712891-0.4414063s-0.4228516-0.6630859-0.4228516-1.1074219
		c0-0.4550781,0.140625-0.8271484,0.4228516-1.1152344s0.6386719-0.4326172,1.0712891-0.4326172
		C66.2981949,24.6610756,66.6614761,24.8056068,66.9437027,25.0936928z M64.4866714,28.96381h2.7714844v9.6835938h-2.7714844
		V28.96381z"/>
	<path fill="#444444" d="M78.6263199,29.863224c0.6416016,0.6728516,0.9628906,1.5722656,0.9628906,2.7001953v6.0839844h-2.7724609
		v-5.2744141c0-0.6113281-0.1708984-1.0947266-0.5126953-1.4482422c-0.3417969-0.3544922-0.8066406-0.53125-1.3945313-0.53125
		c-0.6845703,0.0117188-1.2246094,0.2490234-1.6201172,0.7109375c-0.3964844,0.4619141-0.5947266,1.0527344-0.5947266,1.7734375
		v4.7695313h-2.7714844V28.96381h2.7714844v1.6914063c0.6728516-1.1757813,1.7880859-1.7753906,3.3486328-1.7998047
		C77.1233902,28.8554115,77.9837418,29.191349,78.6263199,29.863224z"/>
	<path fill="#444444" d="M89.6956558,30.2235756c0.8105469,0.8994141,1.2148438,2.1542969,1.2148438,3.7617188
		c0,0.2880859-0.0058594,0.5107422-0.0175781,0.6660156h-6.9482422c0.15625,0.6123047,0.4560547,1.0888672,0.9003906,1.4306641
		c0.4433594,0.3427734,0.9775391,0.5136719,1.6015625,0.5136719c0.4560547,0,0.8935547-0.0869141,1.3144531-0.2617188
		c0.4199219-0.1728516,0.7978516-0.4287109,1.1337891-0.7646484l1.4580078,1.4765625
		c-0.4921875,0.5517578-1.0888672,0.9746094-1.7910156,1.2685547s-1.4853516,0.4414063-2.3496094,0.4414063
		c-1.0195313,0-1.9101563-0.2041016-2.6728516-0.6123047c-0.7617188-0.4082031-1.3496094-0.984375-1.7636719-1.7285156
		c-0.4140625-0.7431641-0.6210938-1.6015625-0.6210938-2.5732422c0-0.984375,0.2099609-1.8515625,0.6298828-2.6015625
		s1.0078125-1.3320313,1.7646484-1.7460938c0.7558594-0.4140625,1.6191406-0.6210938,2.5917969-0.6210938
		C87.7005386,28.8729897,88.8860855,29.323185,89.6956558,30.2235756z M88.3011246,33.0136147
		c-0.0244141-0.6357422-0.2285156-1.1464844-0.6123047-1.5302734s-0.8945313-0.5761719-1.5302734-0.5761719
		c-0.5996094,0-1.1005859,0.1894531-1.5029297,0.5673828s-0.6572266,0.890625-0.7646484,1.5390625H88.3011246z"/>
</g>
<g>
</g>
<g>
</g>
<g>
</g>
<g>
</g>
<g>
</g>
<g>
</g>
<g>
</g>
<g>
</g>
<g>
</g>
<g>
</g>
<g>
</g>
<g>
</g>
<g>
</g>
<g>
</g>
<g>
</g>
</svg>
